<?xml version="1.0" encoding="UTF-8" standalone="no"?>
<!-- Created with Inkscape (http://www.inkscape.org/) -->

<svg
   version="1.1"
   id="svg2708"
   width="178"
   height="212.7258"
   viewBox="0 0 178 212.7258"
   sodipodi:docname="j3.svg"
   inkscape:version="1.2.2 (732a01da63, 2022-12-09, custom)"
   xmlns:inkscape="http://www.inkscape.org/namespaces/inkscape"
   xmlns:sodipodi="http://sodipodi.sourceforge.net/DTD/sodipodi-0.dtd"
   xmlns="http://www.w3.org/2000/svg"
   xmlns:svg="http://www.w3.org/2000/svg">
  <defs
     id="defs2712" />
  <sodipodi:namedview
     id="namedview2710"
     pagecolor="#ffffff"
     bordercolor="#000000"
     borderopacity="0.25"
     inkscape:showpageshadow="2"
     inkscape:pageopacity="0.0"
     inkscape:pagecheckerboard="0"
     inkscape:deskcolor="#d1d1d1"
     showgrid="false"
     inkscape:zoom="2.3579016"
     inkscape:cx="87.789922"
     inkscape:cy="106.02648"
     inkscape:window-width="1920"
     inkscape:window-height="1031"
     inkscape:window-x="0"
     inkscape:window-y="25"
     inkscape:window-maximized="1"
     inkscape:current-layer="layer1" />
  <g
     inkscape:groupmode="layer"
     id="layer1"
     inkscape:label="Layer 1"
     transform="translate(-5,-2.1887193)">
    <path
       style="fill:#000000"
       d="m 86.977211,213.57215 c -5.607996,-1.5487 -13.941416,-7.42972 -17.099926,-12.06768 -1.307507,-1.91994 -2.715715,-3.49388 -3.129353,-3.49764 -0.413637,-0.004 -2.663637,-2.59812 -5,-5.76525 -2.336362,-3.16714 -6.098341,-7.60505 -8.359953,-9.86202 C 51.126368,180.12258 43.111419,170.90137 35.576981,161.88798 14.702251,136.91571 10.502304,127.22019 10.500806,104 10.500363,97.125 10.852999,89.1375 11.284443,86.25 L 12.068886,81 H 8.5344428 C 5.5833813,81 5,80.644776 5,78.847861 5,75.919199 9.820222,69.621997 20.25,58.925057 25.425005,53.617492 29,49.12213 29,47.922407 29,46.806724 27.875,44.238306 26.5,42.214812 25.125,40.191317 24,38.113125 24,37.596606 c 0,-0.516518 -0.71556,-1.729809 -1.590133,-2.696202 -1.008405,-1.114275 -1.34257,-2.537077 -0.913429,-3.889181 0.53765,-1.693985 1.224004,-2.014874 3.340133,-1.561601 4.673828,1.001129 17.465515,2.773459 23.580468,3.26715 5.635488,0.454982 12.427539,-0.41813 22.777624,-2.928043 3.594551,-0.871684 5.655307,-0.850647 8.794159,0.08978 5.186624,1.55395 7.849824,0.717673 8.582965,-2.695155 1.116996,-5.19971 8.54764,-19.2154955 11.060104,-20.861725 1.634609,-1.0710394 6.016669,-1.9233325 12.451589,-2.4217837 5.46113,-0.423021 10.87511,-1.0693095 12.03107,-1.4361967 1.15595,-0.3668872 4.5072,-0.3665253 7.44721,8.043e-4 4.24533,0.5304192 5.48406,1.1045458 6.01888,2.7896372 0.49245,1.5515702 0.0346,2.6220492 -1.70361,3.9833818 C 127.86487,15.512335 116,29.201941 116,32.171445 c 0,0.455705 4.1625,0.835584 9.25,0.844176 5.0875,0.0086 11.95,0.667562 15.25,1.464378 3.3,0.796817 10.40162,1.464788 15.78138,1.484379 8.11187,0.02954 9.88854,0.314846 10.40915,1.671545 0.34527,0.899757 0.21865,2.182441 -0.28138,2.850408 -5.92545,7.915516 -7.20625,11.512412 -4.10013,11.514451 0.65504,4.3e-4 5.57848,4.200606 10.94098,9.333724 8.43077,8.070139 9.75,9.774027 9.75,12.592838 0,2.418891 -0.51597,3.394824 -2,3.782907 -2.44538,0.639481 -2.5298,2.835656 -0.30436,7.917625 1.27236,2.905543 1.67024,6.520468 1.59388,14.481384 -0.18182,18.95517 0.34745,17.88599 -31.04501,62.71332 -15.25948,21.79 -29.657,41.50387 -31.99449,43.80859 -6.43186,6.34169 -11.44828,8.38607 -20.315744,8.27941 -4.088852,-0.0492 -9.469531,-0.65147 -11.957065,-1.33843 z"
       id="path3189" />
    <path
       id="path3216"
       style="fill:#ff0000"
       d="M 63.582031 65.153563 C 63.168978 65.169752 62.744216 65.373609 62.216797 65.737547 C 57.424163 69.044644 46.65795 74.999266 45.472656 74.999266 C 44.668577 74.999266 43.995161 73.646897 43.810547 71.659422 L 43.5 68.317626 L 33.896484 72.909422 C 22.20621 78.49844 21.483535 79.078406 19.648438 84.329344 C 16.043848 94.643501 15.570565 99.576663 17.257812 109.29419 C 21.112391 131.49424 24.819146 138.54335 44.449219 160.99536 C 49.976759 167.31751 57.200003 175.24631 60.5 178.61645 C 63.799997 181.98659 69.586495 188.17404 73.359375 192.3645 C 85.087491 205.39066 97.171056 209.28793 110.05664 204.20434 C 111.46257 203.64968 113.92291 201.4655 115.52539 199.34888 C 119.63697 193.9181 119.69285 193.84471 122.48438 190.35473 C 123.86766 188.62535 125 186.94284 125 186.6145 C 125 186.00751 129.24032 180.13175 135.54883 171.99927 C 141.47231 164.36314 145.51266 158.65132 147.54883 155.03247 C 148.62193 153.12526 151.4125 149.1701 153.75 146.24341 C 156.0875 143.31672 158 140.58321 158 140.16919 C 158 139.48131 160.61521 136.38031 167.73438 128.62427 C 169.18593 127.04285 171.62607 122.09284 173.1582 117.62427 C 176.70422 107.28207 177.01584 95.501251 174.00195 85.743407 C 171.29813 76.989458 169.23157 74.652817 162.29688 72.516844 C 159.10873 71.534855 155.825 70.201087 155 69.552001 C 152.97836 67.961428 140.9247 65.657559 139.98828 66.68286 C 139.57802 67.132061 138.70207 69.186768 138.04297 71.249266 C 137.38388 73.311764 136.5099 74.999266 136.10156 74.999266 C 135.69321 74.999266 133.52041 73.424264 131.27148 71.499266 C 129.02256 69.574268 126.33108 67.999266 125.29102 67.999266 C 124.25095 67.999266 122.92122 67.522041 122.33594 66.936766 C 121.75067 66.351491 119.29895 66.01399 116.88672 66.186766 C 113.01833 66.463838 112.47849 66.794232 112.31641 68.999266 C 111.68134 77.639161 109.46702 84.999266 107.50195 84.999266 C 106.81103 84.999266 105.6335 84.264303 104.88672 83.364501 C 104.13995 82.464697 101.94869 80.668598 100.01562 79.374266 C 98.082553 78.079934 95.553478 76.330088 94.396484 75.485594 C 91.427553 73.31856 89.191926 74.571686 87.976562 79.085204 C 86.442956 84.780583 83.966011 85.683835 79.832031 82.055907 C 77.998903 80.447177 74.587498 77.473681 72.25 75.448485 C 69.912502 73.423289 68 71.12506 68 70.341063 C 68 69.557066 67.084974 67.933863 65.966797 66.733641 C 64.925929 65.616401 64.270454 65.126582 63.582031 65.153563 z M 94.371094 88.999266 C 100.24148 88.999266 102 91.097514 102 98.096922 C 102 102.33369 101.40918 104.41693 99.326172 107.5188 C 97.85539 109.70897 96.167888 111.83151 95.576172 112.23559 C 93.443189 113.69218 89.110418 112.99785 87.691406 110.97192 C 85.931008 108.4586 86.562772 95.876357 88.65625 91.749266 C 89.853492 89.38902 90.663933 88.999266 94.371094 88.999266 z M 48.244141 89.958251 C 50.235407 89.920329 52.021307 90.327651 52.769531 91.249266 C 54.474831 93.349747 57.103713 105.2556 56.484375 108.07544 C 55.15383 114.13336 48.143589 117.00618 42.5 113.80591 C 39.343002 112.01569 39.031881 110.99846 39.015625 102.42505 C 39.002055 95.26577 39.262639 94.102627 41.314453 92.175047 C 42.784655 90.793865 45.683941 90.007007 48.244141 89.958251 z M 143.87695 89.999266 C 149.66488 89.999266 151.39534 91.802324 150.78711 97.198485 C 150.42476 100.41328 149.08066 103.33002 146.10742 107.35473 C 142.44043 112.31857 141.52101 112.99927 138.48828 112.99927 C 135.62541 112.99927 134.9293 112.56751 134.39844 110.45239 C 133.50257 106.88296 135.80159 96.088523 138.16406 92.770751 C 139.71757 90.589046 140.93088 89.999266 143.87695 89.999266 z M 126.39844 125.18286 C 128.78286 125.19876 129.16151 127.10203 128.8125 131.927 C 128.45011 136.93696 127.81862 138.51399 124.625 142.41138 C 120.6664 147.24233 120.14705 147.4431 115.75 145.83716 C 113.28245 144.93593 113.00087 144.35459 113.01562 140.16723 C 113.03982 133.31089 116.3607 128.03407 121.7832 126.23364 C 123.81621 125.55863 125.31461 125.17563 126.39844 125.18286 z M 70.582031 125.99927 C 75.604692 125.99927 76.142458 126.22326 77.1875 128.74927 C 77.813241 130.26176 78.530575 134.84217 78.78125 138.927 C 79.170307 145.26678 78.97224 146.54763 77.427734 147.677 C 74.621904 149.72867 68.336542 149.3358 65.960938 146.9602 C 63.156078 144.15534 62 140.71226 62 135.15747 C 62 128.03801 63.910344 125.99927 70.582031 125.99927 z M 95.673828 158.00122 C 97.587217 158.01982 99.386534 158.21089 100.41797 158.60669 C 101.66419 159.08491 102 160.79121 102 166.65161 C 102 173.2159 101.711 174.38006 99.544922 176.54614 C 98.045916 178.04515 95.940163 178.99927 94.134766 178.99927 C 91.639161 178.99927 90.853509 178.32806 89.089844 174.68481 C 86.767815 169.88814 86.26379 161.13587 88.199219 159.20044 C 88.980224 158.41943 92.484847 157.97022 95.673828 158.00122 z " />
    <path
       style="fill:#008080"
       d="M 85.432112,68.489218 C 87.594774,64.370148 89.717902,61 90.150175,61 c 0.432273,0 1.362822,1.03738 2.067888,2.305288 1.711338,3.077475 10.484597,10.999338 11.064987,9.991193 0.25219,-0.438065 0.77998,-4.171481 1.17287,-8.296481 0.81732,-8.581238 1.72054,-10.260916 4.87002,-9.056575 1.19573,0.457242 4.64906,1.378705 7.67406,2.047695 3.025,0.668991 7.19681,2.307212 9.27069,3.640492 4.0249,2.58758 4.75039,2.15447 4.4081,-2.631612 -0.16038,-2.242612 0.18354,-2.490363 3.3405,-2.406398 1.93561,0.05148 5.31061,0.884864 7.5,1.85196 2.18939,0.967097 4.88071,2.098629 5.98071,2.514517 1.1,0.415888 4.475,1.779722 7.5,3.030742 3.025,1.25102 7.075,2.49668 9,2.768133 l 3.5,0.49355 -5,-4.724598 c -2.75,-2.598529 -7.3625,-5.818532 -10.25,-7.155561 -5.69737,-2.638116 -6.35709,-4.060472 -3.20598,-6.912183 1.12421,-1.017397 1.91171,-2.774641 1.75,-3.904987 C 150.52217,42.65496 149.5575,42.442431 138,41.736485 121.42107,40.723825 119.62034,40.723926 111.90701,41.737941 103.90243,42.790244 103,42.542063 103,39.288393 c 0,-2.185396 1.29377,-4.794319 7.5,-15.12399 0.55,-0.915422 3.12988,-3.914403 5.73306,-6.664403 2.60318,-2.75 4.74068,-5.7875 4.75,-6.75 0.018,-1.8639986 -2.53711,-2.318779 -4.83765,-0.8610298 -0.78271,0.4959718 -2.55372,0.4057248 -4.19493,-0.2137643 -2.16017,-0.8153738 -3.4522,-0.7446538 -5.39541,0.2953223 C 105.14978,10.722615 104,11.759662 104,12.275075 c 0,0.515414 -1.35,2.64163 -3,4.724925 -1.65,2.083295 -3,4.449865 -3,5.259046 0,0.80918 -0.875092,2.583736 -1.944649,3.943458 -1.069557,1.359721 -2.482977,4.682907 -3.140934,7.384858 C 91.60804,38.952105 89.531503,42 87.18287,42 85.15422,42 77,37.161575 77,35.957846 77,34.015512 70.04857,35.027313 66.404862,37.5 c -4.09659,2.780022 -4.439915,2.825012 -19.77604,2.591545 -10.090159,-0.153607 -10.816389,-0.03712 -10.10857,1.621479 2.327617,5.45418 1.843542,6.940951 -4.870563,14.959268 -3.604975,4.305239 -8.150917,8.68607 -10.102094,9.735179 C 19.596418,67.456579 18,68.667522 18,69.098454 c 0,2.018591 2.349486,1.693553 7.807806,-1.080165 C 29.074588,66.35823 32.18722,65 32.724765,65 34.2719,65 43.04167,60.136128 48.34858,56.334752 c 5.900421,-4.226513 8.159826,-3.858325 7.215417,1.175809 -0.81957,4.368683 1.203388,4.704404 5.674994,0.941795 1.665236,-1.401204 3.755197,-2.413704 4.644356,-2.25 C 66.772506,56.36606 69.075,59.698454 71,63.607677 c 2.928663,5.947425 8.047067,12.268624 10,12.349939 0.275,0.01145 2.269451,-3.349329 4.432112,-7.468398 z"
       id="path3242" />
    <path
       id="path3220"
       style="fill:#ffff00"
       d="M 94.794922 90.99536 C 93.214274 90.946809 91.610296 91.852461 90.525391 93.950438 C 88.706199 97.468367 88.487486 108.08832 90.199219 109.80005 C 91.582621 111.18345 92.091217 111.24965 93.576172 110.23559 C 96.235684 108.41944 100 101.30577 100 98.096922 C 100 93.808979 97.429335 91.076278 94.794922 90.99536 z M 48.035156 92.044188 C 46.428831 92.026524 44.578626 92.819579 43.162109 94.327391 C 41.273207 96.338036 41.021694 97.563191 41.320312 103.32739 C 41.510434 106.9973 41.854863 110.15894 42.083984 110.35278 C 44.859978 112.70133 48.638128 113.51763 50.691406 112.21216 C 51.346701 111.79553 52.516701 110.23394 53.291016 108.74145 C 54.504874 106.40174 54.498592 105.23231 53.244141 100.26294 C 52.443926 97.092986 51.330727 93.936765 50.771484 93.249266 C 50.11906 92.447215 49.134221 92.056274 48.035156 92.044188 z M 143.42969 92.069579 C 142.46573 92.127137 141.77327 92.80187 140.50391 94.393797 C 139.25129 95.964728 137.74061 99.669769 137.14648 102.62817 C 135.13954 112.62152 137.92214 113.72891 144.08398 105.38794 C 149.30719 98.317542 149.8221 94.073633 145.64062 92.567626 C 144.68438 92.223222 144.00806 92.035043 143.42969 92.069579 z M 70.646484 127.99927 C 66.480297 127.99927 64.86621 129.78669 64.572266 134.72388 C 64.298074 139.32929 65.272452 142.27172 67.960938 144.9602 C 70.322693 147.32195 72.851736 147.5598 75.445312 145.66333 C 76.952254 144.56142 77.185058 143.37444 76.769531 138.91333 C 75.968856 130.31722 74.669114 127.99927 70.646484 127.99927 z M 125.69727 127.99927 C 122.11143 127.99927 118.96258 130.15261 117.04102 133.91919 C 113.85252 140.16915 114.4152 143.63332 118.66602 143.92114 C 119.30729 143.96454 121.26387 142.19294 123.01367 139.98364 C 126.68498 135.34823 128.33057 127.99927 125.69727 127.99927 z M 94.119141 159.99927 C 90.595033 159.99927 89 161.67673 89 165.38403 C 89 168.72657 92.657216 176.99927 94.134766 176.99927 C 94.660701 176.99927 96.194923 175.89614 97.544922 174.54614 C 99.549206 172.54186 100 171.09245 100 166.65161 C 100 160.80107 99.291926 159.99927 94.119141 159.99927 z " />
  </g>
</svg>
